<svg width="33" height="33" viewBox="0 0 33 33" fill="none" xmlns="http://www.w3.org/2000/svg">
<g clip-path="url(#clip0_69_170)">
<path fill-rule="evenodd" clip-rule="evenodd" d="M0 16.3831C0 24.483 5.88282 31.2184 13.5768 32.5843V20.8173H9.50375V16.2921H13.5768V12.6712C13.5768 8.59818 16.2012 6.33628 19.9131 6.33628C21.0888 6.33628 22.3569 6.51685 23.5326 6.69743V10.8614H21.4513C19.4596 10.8614 19.0075 11.8566 19.0075 13.1247V16.2921H23.3521L22.6284 20.8173H19.0075V32.5843C26.7015 31.2184 32.5843 24.4844 32.5843 16.3831C32.5843 7.37219 25.2528 0 16.2921 0C7.33146 0 0 7.37219 0 16.3831Z" fill="#676464" fill-opacity="0.8"/>
</g>
<defs>
<clipPath id="clip0_69_170">
<rect width="32.5843" height="32.5843" fill="white"/>
</clipPath>
</defs>
</svg>
