<svg width="33" height="33" viewBox="0 0 33 33" fill="none" xmlns="http://www.w3.org/2000/svg">
<path fill-rule="evenodd" clip-rule="evenodd" d="M10.3431 1.44752C11.9356 1.3742 12.4434 1.35791 16.5001 1.35791C20.5569 1.35791 21.0646 1.37556 22.6558 1.44752C24.247 1.51947 25.3332 1.77336 26.2836 2.14129C27.2787 2.51737 28.1816 3.10524 28.9283 3.86554C29.6886 4.61091 30.2751 5.5124 30.6499 6.50894C31.0191 7.45931 31.2717 8.54546 31.345 10.1339C31.4183 11.7292 31.4346 12.237 31.4346 16.2924C31.4346 20.3491 31.4169 20.8569 31.345 22.4494C31.273 24.0379 31.0191 25.1241 30.6499 26.0744C30.2751 27.0711 29.6876 27.9741 28.9283 28.7206C28.1816 29.4809 27.2787 30.0674 26.2836 30.4421C25.3332 30.8114 24.247 31.0639 22.6586 31.1372C21.0646 31.2105 20.5569 31.2268 16.5001 31.2268C12.4434 31.2268 11.9356 31.2092 10.3431 31.1372C8.75458 31.0653 7.66844 30.8114 6.71806 30.4421C5.72142 30.0673 4.81843 29.4798 4.07195 28.7206C3.31216 27.9747 2.7242 27.0722 2.34905 26.0758C1.98112 25.1254 1.7286 24.0393 1.65528 22.4508C1.58197 20.8555 1.56567 20.3478 1.56567 16.2924C1.56567 12.2356 1.58332 11.7279 1.65528 10.1367C1.72724 8.54546 1.98112 7.45931 2.34905 6.50894C2.72475 5.51252 3.31317 4.60997 4.0733 3.86418C4.81872 3.10456 5.72081 2.51661 6.7167 2.14129C7.66708 1.77336 8.75322 1.52083 10.3417 1.44752H10.3431ZM22.535 4.13572C20.9601 4.06376 20.4876 4.04883 16.5001 4.04883C12.5126 4.04883 12.0402 4.06376 10.4653 4.13572C9.00846 4.20225 8.2183 4.44527 7.69152 4.65028C6.99503 4.92181 6.49676 5.24358 5.97405 5.76629C5.47856 6.24834 5.09724 6.83517 4.85804 7.48375C4.65303 8.01053 4.41001 8.8007 4.34348 10.2575C4.27153 11.8324 4.25659 12.3049 4.25659 16.2924C4.25659 20.2799 4.27153 20.7523 4.34348 22.3272C4.41001 23.784 4.65303 24.5742 4.85804 25.101C5.09699 25.7486 5.4785 26.3365 5.97405 26.8184C6.45603 27.314 7.0439 27.6955 7.69152 27.9345C8.2183 28.1395 9.00846 28.3825 10.4653 28.449C12.0402 28.521 12.5113 28.5359 16.5001 28.5359C20.489 28.5359 20.9601 28.521 22.535 28.449C23.9918 28.3825 24.782 28.1395 25.3087 27.9345C26.0052 27.6629 26.5035 27.3412 27.0262 26.8184C27.5218 26.3365 27.9033 25.7486 28.1422 25.101C28.3472 24.5742 28.5903 23.784 28.6568 22.3272C28.7287 20.7523 28.7437 20.2799 28.7437 16.2924C28.7437 12.3049 28.7287 11.8324 28.6568 10.2575C28.5903 8.8007 28.3472 8.01053 28.1422 7.48375C27.8707 6.78726 27.5489 6.289 27.0262 5.76629C26.5441 5.27083 25.9573 4.88952 25.3087 4.65028C24.782 4.44527 23.9918 4.20225 22.535 4.13572ZM14.5926 20.8963C15.6579 21.3397 16.8441 21.3996 17.9487 21.0656C19.0532 20.7316 20.0075 20.0245 20.6487 19.0651C21.2898 18.1056 21.5779 16.9534 21.4639 15.8051C21.3498 14.6568 20.8406 13.5838 20.0233 12.7692C19.5023 12.2485 18.8723 11.8498 18.1787 11.6018C17.4851 11.3538 16.7451 11.2627 16.012 11.335C15.279 11.4073 14.5711 11.6412 13.9393 12.0199C13.3075 12.3987 12.7675 12.9128 12.3583 13.5252C11.949 14.1377 11.6806 14.8333 11.5725 15.5619C11.4643 16.2905 11.519 17.0341 11.7327 17.739C11.9464 18.4439 12.3137 19.0927 12.8082 19.6387C13.3027 20.1846 13.9122 20.6141 14.5926 20.8963ZM11.0721 10.8644C11.7849 10.1516 12.6312 9.58612 13.5625 9.20035C14.4939 8.81458 15.4921 8.61602 16.5001 8.61602C17.5082 8.61602 18.5064 8.81458 19.4377 9.20035C20.3691 9.58612 21.2153 10.1516 21.9281 10.8644C22.6409 11.5772 23.2064 12.4234 23.5921 13.3548C23.9779 14.2861 24.1765 15.2843 24.1765 16.2924C24.1765 17.3004 23.9779 18.2986 23.5921 19.23C23.2064 20.1613 22.6409 21.0075 21.9281 21.7204C20.4885 23.16 18.536 23.9687 16.5001 23.9687C14.4642 23.9687 12.5117 23.16 11.0721 21.7204C9.63254 20.2808 8.82379 18.3283 8.82379 16.2924C8.82379 14.2565 9.63254 12.304 11.0721 10.8644ZM25.879 9.75922C26.0556 9.59259 26.197 9.39221 26.2948 9.16995C26.3926 8.94769 26.4449 8.70806 26.4484 8.46526C26.4519 8.22245 26.4067 7.98141 26.3154 7.75639C26.2241 7.53137 26.0886 7.32696 25.9169 7.15525C25.7452 6.98354 25.5408 6.84803 25.3158 6.75674C25.0908 6.66545 24.8497 6.62024 24.6069 6.62378C24.3641 6.62732 24.1245 6.67954 23.9022 6.77735C23.68 6.87516 23.4796 7.01657 23.313 7.19321C22.9889 7.53674 22.8115 7.99305 22.8184 8.46526C22.8252 8.93747 23.0159 9.38841 23.3498 9.72235C23.6838 10.0563 24.1347 10.2469 24.6069 10.2538C25.0791 10.2607 25.5354 10.0833 25.879 9.75922Z" fill="#676464" fill-opacity="0.8"/>
</svg>
