<svg width="188" height="80" viewBox="0 0 188 80" fill="none" xmlns="http://www.w3.org/2000/svg">
<path fill-rule="evenodd" clip-rule="evenodd" d="M40 80C62.0914 80 80 62.0914 80 40C80 17.9086 62.0914 0 40 0C17.9086 0 0 17.9086 0 40C0 62.0914 17.9086 80 40 80ZM40 75.9875C59.8753 75.9875 75.9874 59.8753 75.9874 40C75.9874 20.1247 59.8753 4.01255 40 4.01255C20.1246 4.01255 4.0125 20.1247 4.0125 40C4.0125 59.8753 20.1246 75.9875 40 75.9875Z" fill="#555555"/>
<path fill-rule="evenodd" clip-rule="evenodd" d="M42.5914 41.6282L46.6996 38.3155L46.0719 37.537L41.95 40.8607L42.5914 41.6282ZM36.182 46.7965L35.5406 46.029L26.8466 53.0396L27.4743 53.818L36.182 46.7965Z" fill="#457DB3"/>
<line x1="57.5858" y1="21.3297" x2="65.337" y2="30.9424" stroke="#457DB2"/>
<line x1="47.7022" y1="27.6599" x2="56.8673" y2="39.0259" stroke="#457DB2"/>
<line x1="54.5218" y1="22.1609" x2="63.6869" y2="33.5269" stroke="#457DB2"/>
<line x1="45.8873" y1="30.0611" x2="53.4485" y2="39.4381" stroke="#457DB2"/>
<line x1="52.2486" y1="23.9938" x2="61.4137" y2="35.3598" stroke="#457DB2"/>
<line x1="45.3183" y1="34.1044" x2="60.2714" y2="22.0469" stroke="#457DB2"/>
<line x1="49.9754" y1="25.8268" x2="59.1405" y2="37.1928" stroke="#457DB2"/>
<line x1="49.7563" y1="40.308" x2="66.237" y2="27.0186" stroke="#457DB2"/>
<line x1="47.1842" y1="37.3588" x2="63.6649" y2="24.0695" stroke="#457DB2"/>
<path fill-rule="evenodd" clip-rule="evenodd" d="M46.2126 38.2393C49.3762 42.1626 56.139 41.9578 61.3177 37.7819C66.4964 33.6059 68.13 27.0402 64.9665 23.1169C61.8029 19.1936 55.0401 19.3984 49.8613 23.5744C44.6826 27.7503 43.049 34.316 46.2126 38.2393ZM48.0881 36.727C50.6189 39.8657 56.0292 39.7018 60.1721 36.3611C64.3151 33.0203 65.622 27.7678 63.0912 24.6291C60.5603 21.4905 55.1501 21.6544 51.0071 24.9951C46.8641 28.3358 45.5572 33.5884 48.0881 36.727Z" fill="#457DB3"/>
<line x1="20.9031" y1="58.6136" x2="27.8707" y2="52.9952" stroke="#457DB2" stroke-width="2" stroke-linecap="round"/>
<g filter="url(#filter0_d_127_2)">
<path fill-rule="evenodd" clip-rule="evenodd" d="M17.7344 39.5648L45.1636 51.4159L20.3678 34.8573C20.7281 35.8851 20.6819 36.9534 20.1428 37.8626C19.6336 38.7213 18.7676 39.2983 17.7344 39.5648Z" fill="#FD6262"/>
</g>
<g filter="url(#filter1_d_127_2)">
<path fill-rule="evenodd" clip-rule="evenodd" d="M30.518 24.8135L46.9545 49.4789L35.0665 21.8678C34.8392 22.9845 34.2584 23.9323 33.3551 24.4858C32.5018 25.0086 31.4995 25.0945 30.518 24.8135Z" fill="#FD6262"/>
</g>
<g filter="url(#filter2_d_127_2)">
<path fill-rule="evenodd" clip-rule="evenodd" d="M20.6741 33.6894L45.2452 50.2887L24.4397 29.0216C24.5526 30.1738 24.2493 31.3117 23.4916 32.2089C22.7759 33.0562 21.7712 33.551 20.6741 33.6894Z" fill="#FD6262"/>
</g>
<g filter="url(#filter3_d_127_2)">
<path fill-rule="evenodd" clip-rule="evenodd" d="M25.0564 28.5909L45.8488 49.5967L29.3243 24.7591C29.2585 25.9075 28.8005 26.961 27.9482 27.6909C27.143 28.3804 26.1168 28.6689 25.0564 28.5909Z" fill="#FD6262"/>
</g>
<path fill-rule="evenodd" clip-rule="evenodd" d="M40.5184 34.7808C39.7563 34.957 38.9148 35.2972 38.0379 35.7867C36.7856 36.4858 35.5091 37.4625 34.3475 38.6106C33.1858 39.7586 32.1834 41.0341 31.4493 42.2981C30.9047 43.236 30.5232 44.141 30.3245 44.9595L30.9781 45.1509C31.2153 43.4304 32.4964 41.1489 34.5259 39.1038C36.622 36.9915 38.9771 35.6746 40.715 35.4863L40.5184 34.7808Z" fill="white"/>
<g filter="url(#filter4_d_127_2)">
<path fill-rule="evenodd" clip-rule="evenodd" d="M41.1586 51.1832L42.5529 52.5674C44.1205 54.1237 46.6512 54.1129 48.2055 52.5434C49.7597 50.9739 49.749 48.4399 48.1814 46.8837L46.7871 45.4995L41.1586 51.1832Z" fill="#D7D7D7"/>
<rect width="7.99905" height="1.4666" transform="matrix(0.703644 -0.710553 0.709666 0.704538 40.1179 50.15)" fill="black"/>
</g>
<path d="M133.296 18.6C134.064 18.4293 134.725 18.3867 135.28 18.472C135.835 18.5573 136.411 18.856 137.008 19.368C137.52 19.9653 138.075 21.3733 138.672 23.592C139.099 25.128 139.376 27.048 139.504 29.352C139.632 31.656 139.611 33.4907 139.44 34.856C139.184 36.3067 138.843 37.5867 138.416 38.696C137.989 39.8053 137.563 40.5307 137.136 40.872C136.283 41.5547 135.685 41.9387 135.344 42.024C135.088 42.1947 134.896 42.28 134.768 42.28C134.64 42.28 134.363 42.28 133.936 42.28C133.509 42.28 132.912 42.152 132.144 41.896C131.376 41.5547 130.821 41.2133 130.48 40.872C129.712 40.36 129.072 39.6347 128.56 38.696C128.219 37.928 127.984 37.3093 127.856 36.84C127.728 36.3707 127.835 35.8373 128.176 35.24C128.347 34.3867 128.731 33.704 129.328 33.192C129.925 32.68 130.651 32.3813 131.504 32.296C132.784 31.9547 133.765 32.0827 134.448 32.68C134.533 32.936 134.64 33.128 134.768 33.256C134.896 33.384 134.96 33.6187 134.96 33.96C134.96 35.4107 134.533 36.648 133.68 37.672C133.168 37.928 132.784 38.1413 132.528 38.312C132.272 38.3973 132.037 38.568 131.824 38.824C131.611 39.08 131.504 39.208 131.504 39.208C131.504 39.2933 131.717 39.464 132.144 39.72C132.912 40.1467 133.595 40.2747 134.192 40.104C134.789 40.0187 135.429 39.464 136.112 38.44C136.539 37.928 136.923 36.9893 137.264 35.624C137.605 34.2587 137.861 32.8933 138.032 31.528C138.117 29.6507 137.925 27.432 137.456 24.872C136.987 22.312 136.325 20.6907 135.472 20.008C135.387 19.5813 135.088 19.368 134.576 19.368C133.808 19.1973 133.083 19.24 132.4 19.496C130.267 20.0933 128.005 21.672 125.616 24.232L124.592 25L124.848 25.64C124.933 27.432 125.061 29.9067 125.232 33.064C125.317 35.88 125.445 37.5013 125.616 37.928C125.616 38.2693 125.573 38.8453 125.488 39.656C125.403 40.4667 125.317 41 125.232 41.256C125.061 41.512 124.869 41.6827 124.656 41.768C124.443 41.8533 124.165 41.8107 123.824 41.64C123.483 41.4693 123.163 41.384 122.864 41.384C122.565 41.384 122.224 41.2987 121.84 41.128C121.456 40.9573 120.88 40.744 120.112 40.488C119.771 40.4027 119.472 40.3173 119.216 40.232C118.96 40.1467 118.704 39.9333 118.448 39.592C118.107 39.08 117.808 38.6747 117.552 38.376C117.296 38.0773 117.125 37.544 117.04 36.776C117.04 36.264 117.04 35.624 117.04 34.856C117.296 33.4907 117.701 32.3387 118.256 31.4C118.811 30.4613 119.941 29.1387 121.648 27.432L122.8 26.28V24.232C122.8 21.8427 122.629 20.648 122.288 20.648C122.117 20.648 121.755 20.904 121.2 21.416C120.645 21.928 120.155 22.3547 119.728 22.696C119.643 22.952 119.195 23.4853 118.384 24.296C117.573 25.1067 117.125 25.512 117.04 25.512C116.613 25.5973 115.973 25.64 115.12 25.64C114.864 25.5547 114.544 25.3627 114.16 25.064C113.776 24.7653 113.52 24.36 113.392 23.848C113.264 23.336 113.243 23.0587 113.328 23.016C113.413 22.9733 113.584 23.1227 113.84 23.464L114.352 23.592L114.864 23.464C115.717 23.1227 116.997 22.44 118.704 21.416C120.155 20.4773 121.264 20.008 122.032 20.008C122.8 20.008 123.312 20.136 123.568 20.392C123.824 20.7333 124.08 21.6293 124.336 23.08C124.507 23.6773 124.635 23.976 124.72 23.976C124.805 23.976 125.104 23.8053 125.616 23.464C126.64 22.44 127.621 21.5867 128.56 20.904C128.987 20.5627 129.371 20.3493 129.712 20.264C130.053 19.9227 130.608 19.5813 131.376 19.24C132.144 18.8987 132.784 18.6853 133.296 18.6ZM122.8 29.992C122.8 28.5413 122.736 27.7733 122.608 27.688C122.48 27.6027 122.139 27.88 121.584 28.52C121.029 29.16 120.624 29.6507 120.368 29.992C119.685 31.1867 119.195 32.2747 118.896 33.256C118.597 34.2373 118.576 35.1547 118.832 36.008C119.173 36.6907 119.472 37.2027 119.728 37.544C119.899 37.6293 120.539 37.7573 121.648 37.928C122.16 37.928 122.416 37.8427 122.416 37.672C122.757 37.416 122.885 34.856 122.8 29.992ZM132.912 32.808C132.656 32.7227 132.272 32.68 131.76 32.68C130.48 32.68 129.627 33.1493 129.2 34.088C128.944 34.344 128.859 34.6853 128.944 35.112C128.944 35.7093 129.093 36.2853 129.392 36.84C129.691 37.3947 130.053 37.8853 130.48 38.312L130.608 38.44L131.504 37.928C131.931 37.3307 132.272 36.6907 132.528 36.008C133.04 35.1547 133.317 34.472 133.36 33.96C133.403 33.448 133.253 33.064 132.912 32.808ZM153.661 19.496C153.661 19.4107 153.704 19.3893 153.789 19.432C153.875 19.4747 154.173 19.5813 154.685 19.752C155.539 19.8373 156.435 20.3493 157.373 21.288C158.056 21.7147 158.397 22.184 158.397 22.696C158.397 22.952 158.056 23.1653 157.373 23.336C157.117 23.336 156.819 23.4213 156.477 23.592C155.795 24.1893 155.197 24.5307 154.685 24.616C154.344 24.7013 154.131 24.7013 154.045 24.616C153.96 24.5307 154.088 24.3173 154.429 23.976C154.771 23.72 155.069 23.4 155.325 23.016C155.581 22.632 155.709 22.312 155.709 22.056C155.709 22.056 155.453 21.8427 154.941 21.416C153.832 20.3067 153.405 19.6667 153.661 19.496ZM165.309 17.832C165.395 17.7467 165.693 17.7893 166.205 17.96C167.4 18.6427 168.168 19.8373 168.509 21.544C168.851 22.9093 169.021 24.616 169.021 26.664C169.021 28.1147 169.043 28.904 169.085 29.032C169.128 29.16 169.363 29.224 169.789 29.224C170.387 29.3093 170.685 29.5227 170.685 29.864C170.685 29.864 170.536 30.0987 170.237 30.568C169.939 31.0373 169.661 31.3573 169.405 31.528C169.235 31.6987 169.107 31.8693 169.021 32.04C168.936 32.2107 168.893 32.6373 168.893 33.32C168.637 34.6853 168.467 35.9227 168.381 37.032C168.296 37.3733 168.296 37.5867 168.381 37.672C168.467 37.7573 168.808 37.8 169.405 37.8C170.003 37.6293 170.515 37.6507 170.941 37.864C171.368 38.0773 171.645 38.248 171.773 38.376C171.901 38.504 172.093 38.5893 172.349 38.632C172.605 38.6747 172.819 38.8667 172.989 39.208C173.075 39.8053 173.096 40.1893 173.053 40.36C173.011 40.5307 172.819 40.616 172.477 40.616C172.051 40.616 171.731 40.5733 171.517 40.488C171.304 40.4027 171.155 40.36 171.069 40.36C170.387 40.2747 169.96 40.4027 169.789 40.744C169.619 40.8293 169.192 41.0427 168.509 41.384L167.869 41.768H166.205C165.011 41.768 164.307 41.7253 164.093 41.64C163.88 41.5547 163.603 41.512 163.261 41.512C162.92 41.4267 162.6 41.2133 162.301 40.872C162.003 40.5307 161.853 40.3173 161.853 40.232C161.853 40.1467 161.981 40.104 162.237 40.104C162.749 39.9333 163.453 39.6773 164.349 39.336C165.245 38.9947 165.736 38.7387 165.821 38.568C165.907 38.3973 165.992 37.8427 166.077 36.904C166.163 35.9653 166.205 35.1547 166.205 34.472V33.064H164.797C164.029 33.064 163.261 32.808 162.493 32.296C162.237 32.1253 161.96 31.9547 161.661 31.784C161.363 31.6133 161.213 31.528 161.213 31.528C161.213 31.4427 161.213 31.4 161.213 31.4C161.128 31.4 160.573 31.912 159.549 32.936C158.525 33.96 158.013 34.5147 158.013 34.6C158.013 34.6 157.821 34.8133 157.437 35.24C157.053 35.6667 156.691 36.0933 156.349 36.52C156.008 36.9467 155.816 37.3307 155.773 37.672C155.731 38.0133 155.709 38.8667 155.709 40.232C155.709 41.512 155.624 42.1947 155.453 42.28C155.453 42.3653 155.368 42.472 155.197 42.6C155.027 42.728 154.856 42.792 154.685 42.792C154.685 42.792 154.557 42.664 154.301 42.408C153.875 41.9813 153.704 41.2987 153.789 40.36C153.789 40.0187 153.747 39.8053 153.661 39.72C153.661 39.72 153.448 39.8907 153.021 40.232C152.595 40.5733 152.339 40.9147 152.253 41.256C152.253 41.3413 152.147 41.448 151.933 41.576C151.72 41.704 151.485 41.6827 151.229 41.512C151.144 41.512 150.973 41.32 150.717 40.936C150.461 40.552 150.333 40.2747 150.333 40.104C150.248 39.4213 150.504 38.3973 151.101 37.032C151.784 36.008 152.424 34.8133 153.021 33.448C153.619 32.424 153.981 31.8053 154.109 31.592C154.237 31.3787 154.301 31.1867 154.301 31.016C154.045 30.76 153.533 31.016 152.765 31.784C151.741 32.6373 150.888 33.2347 150.205 33.576C149.779 33.7467 149.501 33.8533 149.373 33.896C149.245 33.9387 148.968 33.96 148.541 33.96C147.773 33.96 147.219 33.832 146.877 33.576C146.536 33.4907 146.195 33.256 145.853 32.872C145.512 32.488 145.384 32.2107 145.469 32.04C145.469 31.9547 145.619 31.9333 145.917 31.976C146.216 32.0187 146.536 32.04 146.877 32.04C147.219 32.04 148.2 31.6987 149.821 31.016C151.357 30.248 152.424 29.8 153.021 29.672C153.619 29.544 154.173 29.5867 154.685 29.8C155.197 30.0133 155.539 30.2907 155.709 30.632C155.795 30.888 155.965 31.144 156.221 31.4C156.819 31.7413 157.075 32.0827 156.989 32.424C156.989 32.68 156.819 32.8507 156.477 32.936C156.136 33.192 155.923 33.576 155.837 34.088C155.837 34.7707 155.88 35.112 155.965 35.112C156.136 35.112 156.733 34.6 157.757 33.576C159.891 31.784 161 30.888 161.085 30.888C161.171 30.888 161.213 30.9733 161.213 31.144C161.213 31.3147 161.341 31.4 161.597 31.4C161.939 31.4 162.707 31.208 163.901 30.824C165.096 30.44 165.779 30.2053 165.949 30.12C165.949 29.9493 165.992 29.0533 166.077 27.432C166.163 25.8107 166.205 24.232 166.205 22.696C166.205 21.5013 166.163 20.648 166.077 20.136C165.992 19.624 165.864 19.112 165.693 18.6C165.437 18.088 165.309 17.832 165.309 17.832Z" fill="black"/>
<path d="M114.445 54.7656C114.341 54.9115 114.18 55.1172 113.961 55.3828C113.857 55.513 113.698 55.7135 113.484 55.9844C113.115 56.4531 112.826 56.8073 112.617 57.0469C112.862 57.0208 113.154 56.9661 113.492 56.8828L114.742 56.5703C115.169 56.4661 115.589 56.4141 116 56.4141C116.714 56.4141 117.302 56.625 117.766 57.0469C118.234 57.4635 118.469 57.9922 118.469 58.6328C118.469 59.5495 118.078 60.3542 117.297 61.0469C116.521 61.7396 115.617 62.0859 114.586 62.0859C113.831 62.0859 113.159 61.9036 112.57 61.5391C111.982 61.1693 111.227 60.4609 110.305 59.4141L110.141 59.5625C108.214 61.2552 106.445 62.1016 104.836 62.1016C103.513 62.1016 102.419 61.6875 101.555 60.8594C100.695 60.026 100.266 58.974 100.266 57.7031C100.266 56.3073 100.799 55.2083 101.867 54.4062C102.706 53.7708 103.635 53.4531 104.656 53.4531C105.505 53.4531 106.31 53.7526 107.07 54.3516C107.549 54.7318 108.396 55.6562 109.609 57.125C110.005 57.6042 110.349 58.0104 110.641 58.3438L110.82 58.5391C111.107 58.2839 111.326 58.0651 111.477 57.8828C110.721 57.3932 110.344 56.7031 110.344 55.8125C110.344 55.2708 110.62 55 111.172 55C110.833 55.3854 110.664 55.737 110.664 56.0547C110.664 56.3568 110.786 56.6068 111.031 56.8047C111.276 56.9974 111.589 57.0938 111.969 57.0938C112.01 57.0938 112.089 57.0885 112.203 57.0781L112.25 57.0234C112.51 56.7318 112.927 56.2266 113.5 55.5078C114.073 54.7891 114.445 54.3047 114.617 54.0547L114.883 53.6641L115.023 53.4688C115.044 53.4427 115.078 53.3932 115.125 53.3203L115.398 53.4062C115.299 53.5781 115.25 53.7839 115.25 54.0234C115.25 54.3776 115.404 54.7214 115.711 55.0547C116.023 55.3828 116.346 55.5469 116.68 55.5469C117.023 55.5469 117.318 55.3932 117.562 55.0859C117.807 54.7734 117.93 54.3984 117.93 53.9609C117.93 53.3255 117.706 52.8385 117.258 52.5C116.81 52.1562 116.167 51.9844 115.328 51.9844C114.422 51.9844 112.586 52.1589 109.82 52.5078C108.57 52.6693 107.643 52.75 107.039 52.75C106.497 52.75 106.104 52.6641 105.859 52.4922L105.906 52.3359C106.083 51.7474 106.234 51.1849 106.359 50.6484L106.648 50.7109C106.596 50.9349 106.57 51.1172 106.57 51.2578C106.57 51.612 106.93 51.7891 107.648 51.7891C108.091 51.7891 108.953 51.7031 110.234 51.5312C112.766 51.1979 114.49 51.0312 115.406 51.0312C116.385 51.0312 117.146 51.237 117.688 51.6484C118.234 52.0599 118.508 52.6354 118.508 53.375C118.508 54.5833 117.943 55.4505 116.812 55.9766C116.385 56.1745 116.094 56.2734 115.938 56.2734C115.615 56.2734 115.117 55.7708 114.445 54.7656ZM111.016 58.7734C111.427 59.237 111.945 59.7552 112.57 60.3281C113.477 61.1667 114.344 61.5859 115.172 61.5859C115.927 61.5859 116.583 61.3281 117.141 60.8125C117.698 60.2969 117.977 59.6901 117.977 58.9922C117.977 58.487 117.81 58.0781 117.477 57.7656C117.143 57.4531 116.711 57.2969 116.18 57.2969C115.768 57.2969 114.987 57.4401 113.836 57.7266C113.133 57.9036 112.586 57.9922 112.195 57.9922C112.065 57.9922 111.935 57.9792 111.805 57.9531C111.763 57.9948 111.737 58.0234 111.727 58.0391L111.43 58.3516L111.094 58.6875C111.083 58.6979 111.057 58.7266 111.016 58.7734ZM110.109 59.2031L110.039 59.125C109.732 58.776 109.336 58.3047 108.852 57.7109C107.669 56.2474 106.737 55.2578 106.055 54.7422C105.372 54.2214 104.661 53.9609 103.922 53.9609C103.036 53.9609 102.292 54.2917 101.688 54.9531C101.083 55.6094 100.781 56.4245 100.781 57.3984C100.781 58.5182 101.24 59.4896 102.156 60.3125C103.078 61.1302 104.167 61.5391 105.422 61.5391C106.87 61.5391 108.432 60.7604 110.109 59.2031ZM124.141 60.8047L124.281 61.0078C123.734 61.4193 122.987 61.7422 122.039 61.9766C122.065 61.4505 122.375 60.5443 122.969 59.2578C122.297 60.0495 121.604 60.7057 120.891 61.2266C120.182 61.7474 119.62 62.0078 119.203 62.0078C118.839 62.0078 118.656 61.776 118.656 61.3125C118.656 60.526 119.008 59.6771 119.711 58.7656C120.414 57.849 121.297 57.0964 122.359 56.5078C123.557 55.8359 124.75 55.5 125.938 55.5C126.104 55.5 126.188 55.5625 126.188 55.6875C126.188 55.7917 126.109 55.9896 125.953 56.2812C125.599 56.2188 125.255 56.1875 124.922 56.1875C123.333 56.1875 121.966 56.8047 120.82 58.0391C119.977 58.9453 119.555 59.8438 119.555 60.7344C119.555 61.151 119.708 61.3594 120.016 61.3594C120.276 61.3594 120.651 61.1354 121.141 60.6875C121.63 60.2344 122.068 59.7109 122.453 59.1172C122.984 58.2943 123.346 57.4401 123.539 56.5547C123.763 56.6901 123.875 56.9401 123.875 57.3047C123.875 57.8099 123.62 58.3906 123.109 59.0469C123.359 59.026 123.669 58.9531 124.039 58.8281L123.977 58.9609C123.482 60.0703 123.234 60.7188 123.234 60.9062C123.234 61.0573 123.305 61.1276 123.445 61.1172C123.576 61.1068 123.807 61.0026 124.141 60.8047ZM133.039 51.2891C133.018 51.6328 132.773 52.3958 132.305 53.5781L131.727 55.0312L131.5 55.5938C131.812 55.7188 131.982 55.974 132.008 56.3594C131.789 56.2865 131.539 56.2422 131.258 56.2266L131.203 56.3672L130.195 58.9297C129.727 60.1224 129.492 60.8021 129.492 60.9688C129.492 61.1146 129.562 61.1875 129.703 61.1875C129.849 61.1875 130.089 61.0859 130.422 60.8828C130.438 60.8724 130.464 60.8568 130.5 60.8359L130.648 61.0234C130.086 61.4141 129.299 61.7526 128.289 62.0391L128.352 61.7812C128.518 61.1562 128.792 60.375 129.172 59.4375C129.292 59.151 129.401 58.8828 129.5 58.6328L130.375 56.3516L130.453 56.1797C129.891 56.1797 129.284 56.3307 128.633 56.6328C127.982 56.9297 127.411 57.3177 126.922 57.7969C126.005 58.7083 125.547 59.6458 125.547 60.6094C125.547 61.0521 125.708 61.2734 126.031 61.2734C126.349 61.2734 126.745 61.0547 127.219 60.6172C127.698 60.1797 128.12 59.6484 128.484 59.0234C128.828 58.4297 129.109 57.7656 129.328 57.0312C129.417 57.224 129.461 57.4297 129.461 57.6484C129.461 58.0807 129.273 58.5833 128.898 59.1562C128.529 59.7292 128.031 60.2839 127.406 60.8203C126.474 61.612 125.747 62.0078 125.227 62.0078C124.831 62.0078 124.633 61.7604 124.633 61.2656C124.633 60.8333 124.771 60.3359 125.047 59.7734C125.328 59.2109 125.701 58.6745 126.164 58.1641C127.461 56.7422 128.969 55.8854 130.688 55.5938L130.898 55.0547L131.461 53.5781C131.628 53.151 131.714 52.8594 131.719 52.7031C131.729 52.4792 131.617 52.3672 131.383 52.3672C131.247 52.3672 131.096 52.401 130.93 52.4688L130.836 52.2344L130.961 52.1875C131.81 51.8698 132.503 51.5703 133.039 51.2891ZM138.898 60.8281L139.023 61.0312C138.471 61.4271 137.815 61.75 137.055 62C137.138 60.8646 137.672 59.2865 138.656 57.2656L138.883 56.7812C138.924 56.7031 138.945 56.638 138.945 56.5859C138.945 56.4609 138.891 56.3984 138.781 56.3984C138.557 56.3984 138.115 56.7318 137.453 57.3984C136.974 57.8776 136.521 58.4896 136.094 59.2344C135.672 59.9792 135.328 60.7552 135.062 61.5625C134.755 61.6406 134.388 61.7865 133.961 62L134.047 61.7812L134.516 60.6328C134.859 59.7839 135.172 58.9453 135.453 58.1172C135.734 57.2891 135.875 56.7865 135.875 56.6094C135.875 56.4583 135.805 56.3828 135.664 56.3828C135.487 56.3828 135.193 56.5938 134.781 57.0156C134.37 57.4323 133.987 57.9115 133.633 58.4531C133.018 59.401 132.484 60.4505 132.031 61.6016C131.964 61.6224 131.924 61.6354 131.914 61.6406L131.5 61.7891C131.333 61.8464 131.161 61.9115 130.984 61.9844C131.109 61.7188 131.354 61.1458 131.719 60.2656L132.328 58.7969C132.786 57.6823 133.023 56.987 133.039 56.7109C133.049 56.5234 132.974 56.4297 132.812 56.4297C132.708 56.4297 132.552 56.4766 132.344 56.5703L132.25 56.3203C132.703 56.1432 133.286 55.8333 134 55.3906L134.172 55.2812C134.188 55.401 134.195 55.5026 134.195 55.5859C134.195 56.0286 133.924 56.9089 133.383 58.2266C134.831 56.3776 135.953 55.4531 136.75 55.4531C136.984 55.4531 137.102 55.5781 137.102 55.8281C137.102 56.2031 136.839 57.0365 136.312 58.3281C136.911 57.5417 137.56 56.8646 138.258 56.2969C138.961 55.7292 139.5 55.4453 139.875 55.4453C140.094 55.4453 140.203 55.5547 140.203 55.7734C140.203 55.9245 140.005 56.4219 139.609 57.2656C138.656 59.3125 138.18 60.5 138.18 60.8281C138.18 60.9688 138.247 61.0391 138.383 61.0391C138.482 61.0391 138.654 60.9688 138.898 60.8281ZM143.031 55.3203V55.4062C143.031 55.8958 142.708 56.8646 142.062 58.3125L141.484 59.625C141.177 60.3281 141.018 60.7578 141.008 60.9141C141.003 61.0755 141.091 61.151 141.273 61.1406C141.378 61.1354 141.549 61.0807 141.789 60.9766L141.891 61.2031C141.073 61.5938 140.419 61.8724 139.93 62.0391C139.956 61.5495 140.034 61.099 140.164 60.6875C140.299 60.2708 140.589 59.5833 141.031 58.625C141.594 57.3958 141.88 56.6771 141.891 56.4688C141.901 56.3073 141.833 56.2266 141.688 56.2266C141.62 56.2266 141.531 56.2448 141.422 56.2812L141.094 56.3984C141.073 56.4036 141.023 56.4219 140.945 56.4531L140.867 56.2031L141.031 56.1484C141.609 55.9349 142.198 55.6953 142.797 55.4297L143.031 55.3203ZM143.484 53.3203C143.724 53.3203 143.844 53.4401 143.844 53.6797C143.844 53.8151 143.789 53.9375 143.68 54.0469C143.576 54.1562 143.456 54.2109 143.32 54.2109C143.076 54.2109 142.953 54.0911 142.953 53.8516C142.953 53.7161 143.005 53.5938 143.109 53.4844C143.219 53.375 143.344 53.3203 143.484 53.3203ZM147.977 60.8672L148.102 61.0781C147.477 61.526 146.737 61.8385 145.883 62.0156C145.992 61.1562 146.497 59.8516 147.398 58.1016L147.906 57.1328C148.078 56.7995 148.164 56.5859 148.164 56.4922C148.164 56.3516 148.107 56.2812 147.992 56.2812C147.831 56.2812 147.523 56.4635 147.07 56.8281C146.622 57.1927 146.185 57.6146 145.758 58.0938C144.872 59.0833 144.13 60.2708 143.531 61.6562C143.286 61.7135 142.94 61.8385 142.492 62.0312C142.971 61.0521 143.453 59.9531 143.938 58.7344C144.427 57.5104 144.672 56.7865 144.672 56.5625C144.672 56.375 144.596 56.2812 144.445 56.2812C144.367 56.2812 144.198 56.3203 143.938 56.3984C143.917 56.4036 143.888 56.4115 143.852 56.4219L143.805 56.1719C144.534 55.9635 145.193 55.7292 145.781 55.4688L145.883 55.4219C145.893 55.4896 145.898 55.5365 145.898 55.5625C145.898 56.026 145.557 57.013 144.875 58.5234L144.766 58.7578L144.898 58.6094C145.753 57.6354 146.539 56.8698 147.258 56.3125C147.982 55.75 148.547 55.4688 148.953 55.4688C149.208 55.4688 149.336 55.599 149.336 55.8594C149.336 56.1302 148.995 56.9297 148.312 58.2578C147.495 59.8411 147.086 60.7318 147.086 60.9297C147.086 61.0807 147.156 61.1562 147.297 61.1562C147.453 61.1562 147.667 61.0703 147.938 60.8984L147.977 60.8672ZM153.297 55.5L153.195 55.7344H152.094L152.031 55.8672C151.932 56.0755 151.664 56.6849 151.227 57.6953C151.049 58.1068 150.799 58.6745 150.477 59.3984C150.096 60.2422 149.906 60.776 149.906 61C149.906 61.224 150.021 61.3359 150.25 61.3359C150.526 61.3359 150.904 61.1745 151.383 60.8516L151.508 61.0547C151.195 61.2943 150.839 61.4974 150.438 61.6641C150.036 61.8307 149.706 61.9141 149.445 61.9141C149.055 61.9141 148.859 61.7604 148.859 61.4531C148.859 61.2344 149.078 60.6198 149.516 59.6094L150.328 57.7578C150.781 56.7109 151.044 56.0964 151.117 55.9141L151.195 55.7344H150.172L150.281 55.5H150.383C150.831 55.5 151.13 55.4297 151.281 55.2891C151.438 55.1484 151.648 54.7526 151.914 54.1016C151.992 54.1068 152.044 54.1094 152.07 54.1094C152.32 54.1094 152.568 54.0781 152.812 54.0156C152.755 54.1667 152.654 54.4141 152.508 54.7578L152.273 55.3203L152.195 55.5H153.297ZM157.836 56.2344C157.56 56.2083 157.331 56.1953 157.148 56.1953C155.779 56.1953 154.729 56.7214 154 57.7734C153.714 58.1901 153.471 58.6693 153.273 59.2109C153.076 59.7474 152.977 60.1979 152.977 60.5625C152.977 60.8177 153.049 61.0286 153.195 61.1953C153.346 61.3568 153.536 61.4375 153.766 61.4375C154.307 61.4375 154.906 61.0026 155.562 60.1328C156.219 59.263 156.547 58.4661 156.547 57.7422C156.547 57.5807 156.503 57.4453 156.414 57.3359C156.331 57.2214 156.229 57.1641 156.109 57.1641C155.693 57.1641 155.294 57.5807 154.914 58.4141C154.888 58.3099 154.875 58.2188 154.875 58.1406C154.875 57.8177 155.076 57.4792 155.477 57.125C155.878 56.7708 156.258 56.5938 156.617 56.5938C156.857 56.5938 157.06 56.6927 157.227 56.8906C157.393 57.0833 157.477 57.3203 157.477 57.6016C157.477 58.5443 156.875 59.5443 155.672 60.6016C154.641 61.5182 153.784 61.9766 153.102 61.9766C152.805 61.9766 152.557 61.8698 152.359 61.6562C152.167 61.4427 152.07 61.1745 152.07 60.8516C152.07 60.138 152.318 59.3932 152.812 58.6172C153.312 57.8359 153.969 57.1641 154.781 56.6016C155.229 56.2943 155.716 56.0417 156.242 55.8438C156.773 55.6458 157.224 55.5469 157.594 55.5469C157.823 55.5469 157.938 55.6484 157.938 55.8516C157.938 55.9297 157.904 56.0573 157.836 56.2344ZM162.695 60.8672L162.82 61.0781C162.195 61.526 161.456 61.8385 160.602 62.0156C160.711 61.1562 161.216 59.8516 162.117 58.1016L162.625 57.1328C162.797 56.7995 162.883 56.5859 162.883 56.4922C162.883 56.3516 162.826 56.2812 162.711 56.2812C162.549 56.2812 162.242 56.4635 161.789 56.8281C161.341 57.1927 160.904 57.6146 160.477 58.0938C159.591 59.0833 158.849 60.2708 158.25 61.6562C158.005 61.7135 157.659 61.8385 157.211 62.0312C157.69 61.0521 158.172 59.9531 158.656 58.7344C159.146 57.5104 159.391 56.7865 159.391 56.5625C159.391 56.375 159.315 56.2812 159.164 56.2812C159.086 56.2812 158.917 56.3203 158.656 56.3984C158.635 56.4036 158.607 56.4115 158.57 56.4219L158.523 56.1719C159.253 55.9635 159.911 55.7292 160.5 55.4688L160.602 55.4219C160.612 55.4896 160.617 55.5365 160.617 55.5625C160.617 56.026 160.276 57.013 159.594 58.5234L159.484 58.7578L159.617 58.6094C160.471 57.6354 161.258 56.8698 161.977 56.3125C162.701 55.75 163.266 55.4688 163.672 55.4688C163.927 55.4688 164.055 55.599 164.055 55.8594C164.055 56.1302 163.714 56.9297 163.031 58.2578C162.214 59.8411 161.805 60.7318 161.805 60.9297C161.805 61.0807 161.875 61.1562 162.016 61.1562C162.172 61.1562 162.385 61.0703 162.656 60.8984L162.695 60.8672ZM173.328 55.4297L172.227 57.4844H171.953L172.016 57.3516C172.198 56.9557 172.289 56.6823 172.289 56.5312C172.289 56.3438 172.091 56.25 171.695 56.25C171.086 56.25 170.56 56.5078 170.117 57.0234C169.695 57.513 169.333 58.099 169.031 58.7812C168.734 59.4583 168.586 60.0286 168.586 60.4922C168.586 61.0651 168.849 61.3516 169.375 61.3516C169.823 61.3516 170.284 61.1589 170.758 60.7734C171.232 60.388 171.63 59.8802 171.953 59.25L172.156 58.8594C172.167 58.8385 172.19 58.7943 172.227 58.7266C172.284 58.8255 172.312 58.9271 172.312 59.0312C172.312 59.4792 171.979 60.026 171.312 60.6719C170.328 61.6198 169.43 62.0938 168.617 62.0938C167.924 62.0938 167.578 61.7031 167.578 60.9219C167.578 60.25 167.805 59.526 168.258 58.75C168.711 57.974 169.312 57.276 170.062 56.6562C171.068 55.8281 172.049 55.4141 173.008 55.4141C173.07 55.4141 173.177 55.4193 173.328 55.4297ZM176.984 51.2578C176.984 51.8932 176.562 53.1667 175.719 55.0781C174.255 58.4062 173.51 60.3385 173.484 60.875C173.474 61.1094 173.568 61.2214 173.766 61.2109C173.917 61.2057 174.185 61.0521 174.57 60.75L174.664 60.6797L174.812 60.8828C173.974 61.6172 173.359 61.9844 172.969 61.9844C172.656 61.9844 172.5 61.7656 172.5 61.3281C172.5 60.9896 172.607 60.5156 172.82 59.9062C173.039 59.2969 173.557 58.013 174.375 56.0547L175.117 54.2734C175.565 53.2057 175.789 52.5833 175.789 52.4062C175.789 52.2656 175.708 52.1953 175.547 52.1953C175.49 52.1953 175.352 52.2292 175.133 52.2969C175.107 52.3073 175.068 52.3203 175.016 52.3359L174.938 52.1094L175.055 52.0625C175.956 51.7188 176.599 51.4505 176.984 51.2578ZM181.461 55.5547C181.096 56.2526 180.654 57.2344 180.133 58.5C179.612 59.7656 179.346 60.5026 179.336 60.7109C179.331 60.8724 179.419 60.9531 179.602 60.9531C179.742 60.9531 179.948 60.901 180.219 60.7969L180.32 61.0078C179.94 61.2057 179.312 61.4714 178.438 61.8047L178.227 61.8828C178.362 61.0339 178.622 60.1276 179.008 59.1641C178.336 60.013 177.698 60.6797 177.094 61.1641C176.495 61.6432 176 61.8828 175.609 61.8828C175.266 61.8828 175.094 61.7031 175.094 61.3438C175.094 60.9115 175.414 60.0234 176.055 58.6797L176.68 57.3672C176.872 56.9609 176.974 56.6693 176.984 56.4922C176.995 56.3203 176.906 56.2344 176.719 56.2344C176.635 56.2344 176.49 56.2656 176.281 56.3281L176.219 56.0938L176.344 56.0547C177.073 55.8411 177.68 55.6302 178.164 55.4219C178.164 55.8385 177.932 56.5234 177.469 57.4766L176.789 58.8672C176.268 59.9349 176.008 60.5885 176.008 60.8281C176.008 61.0521 176.107 61.1641 176.305 61.1641C176.81 61.1641 177.479 60.638 178.312 59.5859C179.146 58.5286 179.81 57.3646 180.305 56.0938L180.406 55.8438C180.708 55.8125 181.06 55.7161 181.461 55.5547ZM185.477 51.2578C185.414 52.0391 184.701 54.0495 183.336 57.2891L183.195 57.6094C183.763 57 184.38 56.5 185.047 56.1094C185.714 55.7188 186.289 55.5234 186.773 55.5234C187.253 55.5234 187.492 55.776 187.492 56.2812C187.492 56.8542 187.232 57.5208 186.711 58.2812C186.19 59.0417 185.526 59.7292 184.719 60.3438C183.25 61.4479 181.831 62 180.461 62L180.57 61.75C181.544 59.4896 182.388 57.4479 183.102 55.625C183.82 53.8021 184.18 52.7812 184.18 52.5625C184.18 52.4062 184.086 52.3281 183.898 52.3281C183.784 52.3281 183.599 52.375 183.344 52.4688L183.258 52.2266C183.935 51.9818 184.674 51.6589 185.477 51.2578ZM181.633 61.2188C181.773 61.2396 181.88 61.25 181.953 61.25C183.104 61.25 184.133 60.6693 185.039 59.5078C185.404 59.0391 185.706 58.5391 185.945 58.0078C186.19 57.4766 186.312 57.0469 186.312 56.7188C186.312 56.3542 186.141 56.1719 185.797 56.1719C185.203 56.1719 184.487 56.6823 183.648 57.7031C182.81 58.7188 182.138 59.8906 181.633 61.2188Z" fill="black"/>
<defs>
<filter id="filter0_d_127_2" x="13.7344" y="34.8573" width="35.4293" height="24.5586" filterUnits="userSpaceOnUse" color-interpolation-filters="sRGB">
<feFlood flood-opacity="0" result="BackgroundImageFix"/>
<feColorMatrix in="SourceAlpha" type="matrix" values="0 0 0 0 0 0 0 0 0 0 0 0 0 0 0 0 0 0 127 0" result="hardAlpha"/>
<feOffset dy="4"/>
<feGaussianBlur stdDeviation="2"/>
<feComposite in2="hardAlpha" operator="out"/>
<feColorMatrix type="matrix" values="0 0 0 0 0 0 0 0 0 0 0 0 0 0 0 0 0 0 0.25 0"/>
<feBlend mode="normal" in2="BackgroundImageFix" result="effect1_dropShadow_127_2"/>
<feBlend mode="normal" in="SourceGraphic" in2="effect1_dropShadow_127_2" result="shape"/>
</filter>
<filter id="filter1_d_127_2" x="26.5179" y="21.8678" width="24.4365" height="35.6111" filterUnits="userSpaceOnUse" color-interpolation-filters="sRGB">
<feFlood flood-opacity="0" result="BackgroundImageFix"/>
<feColorMatrix in="SourceAlpha" type="matrix" values="0 0 0 0 0 0 0 0 0 0 0 0 0 0 0 0 0 0 127 0" result="hardAlpha"/>
<feOffset dy="4"/>
<feGaussianBlur stdDeviation="2"/>
<feComposite in2="hardAlpha" operator="out"/>
<feColorMatrix type="matrix" values="0 0 0 0 0 0 0 0 0 0 0 0 0 0 0 0 0 0 0.25 0"/>
<feBlend mode="normal" in2="BackgroundImageFix" result="effect1_dropShadow_127_2"/>
<feBlend mode="normal" in="SourceGraphic" in2="effect1_dropShadow_127_2" result="shape"/>
</filter>
<filter id="filter2_d_127_2" x="16.6741" y="29.0215" width="32.5712" height="29.2671" filterUnits="userSpaceOnUse" color-interpolation-filters="sRGB">
<feFlood flood-opacity="0" result="BackgroundImageFix"/>
<feColorMatrix in="SourceAlpha" type="matrix" values="0 0 0 0 0 0 0 0 0 0 0 0 0 0 0 0 0 0 127 0" result="hardAlpha"/>
<feOffset dy="4"/>
<feGaussianBlur stdDeviation="2"/>
<feComposite in2="hardAlpha" operator="out"/>
<feColorMatrix type="matrix" values="0 0 0 0 0 0 0 0 0 0 0 0 0 0 0 0 0 0 0.25 0"/>
<feBlend mode="normal" in2="BackgroundImageFix" result="effect1_dropShadow_127_2"/>
<feBlend mode="normal" in="SourceGraphic" in2="effect1_dropShadow_127_2" result="shape"/>
</filter>
<filter id="filter3_d_127_2" x="21.0564" y="24.7591" width="28.7924" height="32.8377" filterUnits="userSpaceOnUse" color-interpolation-filters="sRGB">
<feFlood flood-opacity="0" result="BackgroundImageFix"/>
<feColorMatrix in="SourceAlpha" type="matrix" values="0 0 0 0 0 0 0 0 0 0 0 0 0 0 0 0 0 0 127 0" result="hardAlpha"/>
<feOffset dy="4"/>
<feGaussianBlur stdDeviation="2"/>
<feComposite in2="hardAlpha" operator="out"/>
<feColorMatrix type="matrix" values="0 0 0 0 0 0 0 0 0 0 0 0 0 0 0 0 0 0 0.25 0"/>
<feBlend mode="normal" in2="BackgroundImageFix" result="effect1_dropShadow_127_2"/>
<feBlend mode="normal" in="SourceGraphic" in2="effect1_dropShadow_127_2" result="shape"/>
</filter>
<filter id="filter4_d_127_2" x="36.1179" y="44.4662" width="17.2462" height="17.2614" filterUnits="userSpaceOnUse" color-interpolation-filters="sRGB">
<feFlood flood-opacity="0" result="BackgroundImageFix"/>
<feColorMatrix in="SourceAlpha" type="matrix" values="0 0 0 0 0 0 0 0 0 0 0 0 0 0 0 0 0 0 127 0" result="hardAlpha"/>
<feOffset dy="4"/>
<feGaussianBlur stdDeviation="2"/>
<feComposite in2="hardAlpha" operator="out"/>
<feColorMatrix type="matrix" values="0 0 0 0 0 0 0 0 0 0 0 0 0 0 0 0 0 0 0.25 0"/>
<feBlend mode="normal" in2="BackgroundImageFix" result="effect1_dropShadow_127_2"/>
<feBlend mode="normal" in="SourceGraphic" in2="effect1_dropShadow_127_2" result="shape"/>
</filter>
</defs>
</svg>
