<svg width="33" height="33" viewBox="0 0 33 33" fill="none" xmlns="http://www.w3.org/2000/svg">
<g clip-path="url(#clip0_69_174)">
<path d="M32.5152 6.70264C31.3815 7.20498 30.1637 7.5444 28.8834 7.69782C30.2044 6.90737 31.1927 5.66329 31.6639 4.19773C30.4228 4.93493 29.0644 5.45384 27.6479 5.7319C26.6953 4.71482 25.4336 4.04068 24.0586 3.81415C22.6837 3.58761 21.2724 3.82137 20.0439 4.47911C18.8154 5.13685 17.8384 6.18178 17.2646 7.45168C16.6908 8.72157 16.5523 10.1454 16.8707 11.502C14.3558 11.3758 11.8956 10.7221 9.64974 9.58351C7.40387 8.4449 5.4225 6.84677 3.83423 4.89286C3.29116 5.82965 2.9789 6.9158 2.9789 8.07254C2.97829 9.11387 3.23473 10.1393 3.72545 11.0577C4.21618 11.9762 4.92602 12.7593 5.792 13.3376C4.7877 13.3057 3.80555 13.0343 2.9273 12.5461V12.6275C2.9272 14.0881 3.4324 15.5036 4.35719 16.6341C5.28197 17.7645 6.56937 18.5401 8.00095 18.8294C7.06929 19.0816 6.09251 19.1187 5.14439 18.938C5.5483 20.1947 6.33507 21.2936 7.39456 22.081C8.45406 22.8683 9.73323 23.3046 11.053 23.3288C8.81261 25.0875 6.04574 26.0415 3.19748 26.0373C2.69294 26.0375 2.18883 26.008 1.68774 25.9491C4.57889 27.808 7.94439 28.7945 11.3816 28.7907C23.0169 28.7907 29.3776 19.1539 29.3776 10.796C29.3776 10.5245 29.3708 10.2503 29.3586 9.97872C30.5958 9.08397 31.6638 7.976 32.5125 6.70671L32.5152 6.70264Z" fill="#676464" fill-opacity="0.8"/>
</g>
<defs>
<clipPath id="clip0_69_174">
<rect width="32.5843" height="32.5843" fill="white" transform="translate(0.415649)"/>
</clipPath>
</defs>
</svg>
