<svg width="40" height="40" viewBox="0 0 40 40" fill="none" xmlns="http://www.w3.org/2000/svg">
<path d="M4.83332 25.2083L18.8333 11.1667C19 11 19.1805 10.8822 19.375 10.8133C19.5694 10.7433 19.7778 10.7083 20 10.7083C20.2222 10.7083 20.4305 10.7433 20.625 10.8133C20.8194 10.8822 21 11 21.1667 11.1667L35.2083 25.2083C35.5972 25.5972 35.7917 26.0833 35.7917 26.6667C35.7917 27.25 35.5833 27.75 35.1667 28.1667C34.75 28.5833 34.2639 28.7917 33.7083 28.7917C33.1528 28.7917 32.6667 28.5833 32.25 28.1667L20 15.9167L7.74999 28.1667C7.3611 28.5556 6.88221 28.75 6.31332 28.75C5.74332 28.75 5.24999 28.5417 4.83332 28.125C4.41665 27.7083 4.20832 27.2222 4.20832 26.6667C4.20832 26.1111 4.41666 25.625 4.83332 25.2083Z" fill="#0041C0" fill-opacity="0.5"/>
</svg>
