<svg width="40" height="40" viewBox="0 0 40 40" fill="none" xmlns="http://www.w3.org/2000/svg">
<path d="M35.1667 14.7917L21.1667 28.8334C21 29 20.8194 29.1178 20.625 29.1867C20.4306 29.2567 20.2222 29.2917 20 29.2917C19.7778 29.2917 19.5694 29.2567 19.375 29.1867C19.1806 29.1178 19 29 18.8333 28.8334L4.79166 14.7917C4.40277 14.4028 4.20833 13.9167 4.20833 13.3334C4.20833 12.75 4.41666 12.25 4.83333 11.8334C5.25 11.4167 5.73611 11.2084 6.29166 11.2084C6.84722 11.2084 7.33333 11.4167 7.75 11.8334L20 24.0834L32.25 11.8334C32.6389 11.4445 33.1178 11.25 33.6867 11.25C34.2567 11.25 34.75 11.4584 35.1667 11.875C35.5833 12.2917 35.7917 12.7778 35.7917 13.3334C35.7917 13.8889 35.5833 14.375 35.1667 14.7917Z" fill="#0041C0" fill-opacity="0.5"/>
</svg>
